<svg width="136" height="137" viewBox="0 0 136 137" fill="none" xmlns="http://www.w3.org/2000/svg">
<mask id="path-1-inside-1_7373_1685" fill="white">
<path d="M135.601 0.717773C135.601 18.5252 132.094 36.1582 125.279 52.6102C118.464 69.0621 108.476 84.0106 95.8844 96.6024C83.2926 109.194 68.344 119.182 51.8921 125.997C35.4402 132.812 17.8072 136.319 -0.000244141 136.319V106.898C13.9435 106.898 27.7507 104.151 40.6331 98.8153C53.5155 93.4793 65.2207 85.6581 75.0804 75.7984C84.9401 65.9387 92.7613 54.2335 98.0973 41.3511C103.433 28.4688 106.18 14.6615 106.18 0.717773H135.601Z"/>
</mask>
<path d="M135.601 0.717773C135.601 18.5252 132.094 36.1582 125.279 52.6102C118.464 69.0621 108.476 84.0106 95.8844 96.6024C83.2926 109.194 68.344 119.182 51.8921 125.997C35.4402 132.812 17.8072 136.319 -0.000244141 136.319V106.898C13.9435 106.898 27.7507 104.151 40.6331 98.8153C53.5155 93.4793 65.2207 85.6581 75.0804 75.7984C84.9401 65.9387 92.7613 54.2335 98.0973 41.3511C103.433 28.4688 106.18 14.6615 106.18 0.717773H135.601Z" fill="url(#paint0_linear_7373_1685)" stroke="white" stroke-opacity="0.1" stroke-width="2" mask="url(#path-1-inside-1_7373_1685)"/>
<defs>
<linearGradient id="paint0_linear_7373_1685" x1="-71.8038" y1="-134.884" x2="84.5992" y2="102.899" gradientUnits="userSpaceOnUse">
<stop stop-color="white"/>
<stop offset="1" stop-color="white" stop-opacity="0"/>
</linearGradient>
</defs>
</svg>
