<svg width="272" height="137" viewBox="0 0 272 137" fill="none" xmlns="http://www.w3.org/2000/svg">
<mask id="path-1-inside-1_7373_1728" fill="white">
<path d="M271.601 0.717773C271.601 18.5252 268.094 36.1582 261.279 52.6102C254.464 69.0621 244.476 84.0106 231.884 96.6024C219.293 109.194 204.344 119.182 187.892 125.997C171.44 132.812 153.807 136.319 136 136.319C118.192 136.319 100.559 132.812 84.1074 125.997C67.6555 119.182 52.7069 109.194 40.1151 96.6024C27.5234 84.0106 17.5351 69.0621 10.7205 52.6101C3.90587 36.1582 0.398436 18.5252 0.398438 0.717758H29.8197C29.8197 14.6615 32.5661 28.4688 37.9022 41.3511C43.2382 54.2335 51.0594 65.9387 60.9191 75.7984C70.7789 85.6581 82.4841 93.4793 95.3664 98.8153C108.249 104.151 122.056 106.898 136 106.898C149.944 106.898 163.751 104.151 176.633 98.8153C189.515 93.4793 201.221 85.6581 211.08 75.7984C220.94 65.9387 228.761 54.2335 234.097 41.3511C239.433 28.4688 242.18 14.6615 242.18 0.717773H271.601Z"/>
</mask>
<path d="M271.601 0.717773C271.601 18.5252 268.094 36.1582 261.279 52.6102C254.464 69.0621 244.476 84.0106 231.884 96.6024C219.293 109.194 204.344 119.182 187.892 125.997C171.44 132.812 153.807 136.319 136 136.319C118.192 136.319 100.559 132.812 84.1074 125.997C67.6555 119.182 52.7069 109.194 40.1151 96.6024C27.5234 84.0106 17.5351 69.0621 10.7205 52.6101C3.90587 36.1582 0.398436 18.5252 0.398438 0.717758H29.8197C29.8197 14.6615 32.5661 28.4688 37.9022 41.3511C43.2382 54.2335 51.0594 65.9387 60.9191 75.7984C70.7789 85.6581 82.4841 93.4793 95.3664 98.8153C108.249 104.151 122.056 106.898 136 106.898C149.944 106.898 163.751 104.151 176.633 98.8153C189.515 93.4793 201.221 85.6581 211.08 75.7984C220.94 65.9387 228.761 54.2335 234.097 41.3511C239.433 28.4688 242.18 14.6615 242.18 0.717773H271.601Z" fill="url(#paint0_linear_7373_1728)" stroke="white" stroke-opacity="0.1" stroke-width="2" mask="url(#path-1-inside-1_7373_1728)"/>
<defs>
<linearGradient id="paint0_linear_7373_1728" x1="64.1962" y1="-134.884" x2="220.599" y2="102.899" gradientUnits="userSpaceOnUse">
<stop stop-color="white"/>
<stop offset="1" stop-color="white" stop-opacity="0"/>
</linearGradient>
</defs>
</svg>
