<svg width="272" height="272" viewBox="0 0 272 272" fill="none" xmlns="http://www.w3.org/2000/svg">
<mask id="path-1-inside-1_7373_1741" fill="white">
<path d="M271.601 135.718C271.601 162.537 263.648 188.754 248.748 211.054C233.848 233.353 212.67 250.734 187.892 260.997C163.114 271.26 135.849 273.946 109.545 268.714C83.2412 263.481 59.0793 250.567 40.1151 231.602C21.151 212.638 8.23619 188.476 3.00398 162.172C-2.22823 135.868 0.457131 108.603 10.7205 83.8254C20.9838 59.0475 38.3642 37.8695 60.6637 22.9694C82.9632 8.06933 109.18 0.116455 136 0.116455V29.5377C114.999 29.5377 94.4705 35.7651 77.0093 47.4323C59.5481 59.0995 45.9387 75.6826 37.9022 95.0844C29.8657 114.486 27.763 135.836 31.8599 156.432C35.9569 177.029 46.0696 195.949 60.9191 210.798C75.7687 225.648 94.6881 235.761 115.285 239.858C135.882 243.955 157.231 241.852 176.633 233.815C196.035 225.779 212.618 212.169 224.285 194.708C235.952 177.247 242.18 156.718 242.18 135.718H271.601Z"/>
</mask>
<path d="M271.601 135.718C271.601 162.537 263.648 188.754 248.748 211.054C233.848 233.353 212.67 250.734 187.892 260.997C163.114 271.26 135.849 273.946 109.545 268.714C83.2412 263.481 59.0793 250.567 40.1151 231.602C21.151 212.638 8.23619 188.476 3.00398 162.172C-2.22823 135.868 0.457131 108.603 10.7205 83.8254C20.9838 59.0475 38.3642 37.8695 60.6637 22.9694C82.9632 8.06933 109.18 0.116455 136 0.116455V29.5377C114.999 29.5377 94.4705 35.7651 77.0093 47.4323C59.5481 59.0995 45.9387 75.6826 37.9022 95.0844C29.8657 114.486 27.763 135.836 31.8599 156.432C35.9569 177.029 46.0696 195.949 60.9191 210.798C75.7687 225.648 94.6881 235.761 115.285 239.858C135.882 243.955 157.231 241.852 176.633 233.815C196.035 225.779 212.618 212.169 224.285 194.708C235.952 177.247 242.18 156.718 242.18 135.718H271.601Z" fill="url(#paint0_linear_7373_1741)" stroke="white" stroke-opacity="0.1" stroke-width="2" mask="url(#path-1-inside-1_7373_1741)"/>
<defs>
<linearGradient id="paint0_linear_7373_1741" x1="64.1962" y1="0.116458" x2="220.599" y2="237.899" gradientUnits="userSpaceOnUse">
<stop stop-color="white"/>
<stop offset="1" stop-color="white" stop-opacity="0"/>
</linearGradient>
</defs>
</svg>
