<svg width="272" height="272" viewBox="0 0 272 272" fill="none" xmlns="http://www.w3.org/2000/svg">
<mask id="path-1-inside-1_7373_1755" fill="white">
<path d="M271.601 135.718C271.601 210.608 210.89 271.319 136 271.319C61.1092 271.319 0.398438 210.608 0.398438 135.718C0.398438 60.8272 61.1092 0.116455 136 0.116455C210.89 0.116455 271.601 60.8272 271.601 135.718ZM29.8197 135.718C29.8197 194.359 77.3581 241.898 136 241.898C194.641 241.898 242.18 194.359 242.18 135.718C242.18 77.0762 194.641 29.5377 136 29.5377C77.3581 29.5377 29.8197 77.0762 29.8197 135.718Z"/>
</mask>
<path d="M271.601 135.718C271.601 210.608 210.89 271.319 136 271.319C61.1092 271.319 0.398438 210.608 0.398438 135.718C0.398438 60.8272 61.1092 0.116455 136 0.116455C210.89 0.116455 271.601 60.8272 271.601 135.718ZM29.8197 135.718C29.8197 194.359 77.3581 241.898 136 241.898C194.641 241.898 242.18 194.359 242.18 135.718C242.18 77.0762 194.641 29.5377 136 29.5377C77.3581 29.5377 29.8197 77.0762 29.8197 135.718Z" fill="url(#paint0_linear_7373_1755)" stroke="white" stroke-opacity="0.1" stroke-width="2" mask="url(#path-1-inside-1_7373_1755)"/>
<defs>
<linearGradient id="paint0_linear_7373_1755" x1="64.1962" y1="0.116458" x2="220.599" y2="237.899" gradientUnits="userSpaceOnUse">
<stop stop-color="white"/>
<stop offset="1" stop-color="white" stop-opacity="0"/>
</linearGradient>
</defs>
</svg>
