<svg width="137" height="89" viewBox="0 0 137 89" fill="none" xmlns="http://www.w3.org/2000/svg">
<g opacity="0.25">
<path d="M53.1708 64.803H10.0298C4.57034 64.803 0.144531 69.2263 0.144531 74.6828C0.144531 80.1393 4.57034 84.5626 10.0298 84.5626H53.1708C58.6303 84.5626 63.0561 80.1393 63.0561 74.6828C63.0561 69.2263 58.6303 64.803 53.1708 64.803Z" fill="#7B68EE"/>
<path d="M27.742 32.7617H10.0299C4.57034 32.7617 0.144531 37.1851 0.144531 42.6415C0.144531 48.098 4.57034 52.5213 10.0299 52.5213H27.742C33.2015 52.5213 37.6273 48.098 37.6273 42.6415C37.6273 37.1851 33.2015 32.7617 27.742 32.7617Z" fill="#7B68EE"/>
<path d="M126.459 64.8037H84.0338C78.5742 64.8037 74.1484 69.2271 74.1484 74.6835C74.1484 80.14 78.5742 84.5633 84.0338 84.5633H126.459C131.919 84.5633 136.345 80.14 136.345 74.6835C136.345 69.2271 131.919 64.8037 126.459 64.8037Z" fill="#7B68EE"/>
<path d="M100.126 35.1152L75.9716 68.9032C72.7966 73.3445 73.8211 79.5175 78.2599 82.6907C82.6988 85.864 88.8712 84.8359 92.0462 80.3945L116.2 46.6065C119.375 42.1652 118.351 35.9923 113.912 32.8191C109.473 29.6458 103.301 30.6739 100.126 35.1152Z" fill="#7B68EE"/>
<rect x="115" y="17.0962" width="6.697" height="6.30306" rx="2" fill="white"/>
<path d="M126.401 0.727539H83.2603C77.8008 0.727539 73.375 5.15089 73.375 10.6074C73.375 16.0638 77.8008 20.4872 83.2603 20.4872H113.805V16.9062C113.805 16.3623 114.246 15.9214 114.79 15.9214H121.881C122.425 15.9214 122.866 16.3623 122.866 16.9062V20.4872H126.401C131.861 20.4872 136.287 16.0638 136.287 10.6074C136.287 5.15089 131.861 0.727539 126.401 0.727539Z" fill="white"/>
<rect width="6.697" height="6.30306" rx="2" transform="matrix(-1 0 0 1 21.4883 17.1177)" fill="#47CDD0"/>
<path d="M10.0753 0.749023H53.2162C58.6757 0.749023 63.1016 5.17237 63.1016 10.6288C63.1016 16.0853 58.6757 20.5087 53.2162 20.5087H22.6716V16.9277C22.6716 16.3838 22.2306 15.9428 21.6867 15.9428H14.5958C14.0519 15.9428 13.6109 16.3838 13.6109 16.9277V20.5087H10.0753C4.61578 20.5087 0.189953 16.0853 0.189953 10.6288C0.189953 5.17237 4.61578 0.749023 10.0753 0.749023Z" fill="#47CDD0"/>
</g>
</svg>
