<svg width="44" height="44" viewBox="0 0 44 44" fill="none" xmlns="http://www.w3.org/2000/svg">
<rect x="0.5" y="0.5" width="43" height="43" rx="9.5" fill="white"/>
<rect x="0.5" y="0.5" width="43" height="43" rx="9.5" stroke="#6657C6"/>
<path d="M26.7755 18.2877L18.2902 26.773C18.0003 27.0629 17.5195 27.0629 17.2295 26.773C16.9396 26.4831 16.9396 26.0023 17.2295 25.7123L25.7148 17.2271C26.0047 16.9372 26.4856 16.9372 26.7755 17.2271C27.0654 17.517 27.0654 17.9978 26.7755 18.2877Z" fill="#292D32"/>
<path d="M26.7755 26.7729C26.4856 27.0628 26.0047 27.0628 25.7148 26.7729L17.2295 18.2877C16.9396 17.9977 16.9396 17.5169 17.2295 17.227C17.5195 16.9371 18.0003 16.9371 18.2902 17.227L26.7755 25.7123C27.0654 26.0022 27.0654 26.483 26.7755 26.7729Z" fill="#292D32"/>
</svg>
