<svg width="17" height="17" viewBox="0 0 17 17" fill="none" xmlns="http://www.w3.org/2000/svg">
<path d="M10.3125 13.9124H3.64583C2.7621 13.9114 1.91487 13.5598 1.28998 12.935C0.665088 12.3101 0.313559 11.4628 0.3125 10.5791L0.3125 3.91244C0.313559 3.0287 0.665088 2.18147 1.28998 1.55658C1.91487 0.93169 2.7621 0.58016 3.64583 0.579102L10.3125 0.579102C11.1962 0.58016 12.0435 0.93169 12.6684 1.55658C13.2932 2.18147 13.6448 3.0287 13.6458 3.91244V10.5791C13.6448 11.4628 13.2932 12.3101 12.6684 12.935C12.0435 13.5598 11.1962 13.9114 10.3125 13.9124ZM3.64583 1.91243C3.1154 1.91243 2.60669 2.12315 2.23162 2.49822C1.85655 2.87329 1.64583 3.382 1.64583 3.91244V10.5791C1.64583 11.1095 1.85655 11.6182 2.23162 11.9933C2.60669 12.3684 3.1154 12.5791 3.64583 12.5791H10.3125C10.8429 12.5791 11.3516 12.3684 11.7267 11.9933C12.1018 11.6182 12.3125 11.1095 12.3125 10.5791V3.91244C12.3125 3.382 12.1018 2.87329 11.7267 2.49822C11.3516 2.12315 10.8429 1.91243 10.3125 1.91243H3.64583ZM16.3125 13.2458V4.5791C16.3125 4.40229 16.2423 4.23272 16.1172 4.1077C15.9922 3.98267 15.8226 3.91244 15.6458 3.91244C15.469 3.91244 15.2995 3.98267 15.1744 4.1077C15.0494 4.23272 14.9792 4.40229 14.9792 4.5791V13.2458C14.9792 13.7762 14.7685 14.2849 14.3934 14.66C14.0183 15.0351 13.5096 15.2458 12.9792 15.2458H4.3125C4.13569 15.2458 3.96612 15.316 3.8411 15.441C3.71607 15.5661 3.64583 15.7356 3.64583 15.9124C3.64583 16.0892 3.71607 16.2588 3.8411 16.3838C3.96612 16.5089 4.13569 16.5791 4.3125 16.5791H12.9792C13.8629 16.578 14.7101 16.2265 15.335 15.6016C15.9599 14.9767 16.3114 14.1295 16.3125 13.2458Z" fill="#7B68EE"/>
</svg>
