<svg width="1117" height="149" viewBox="0 0 1117 149" fill="none" xmlns="http://www.w3.org/2000/svg">
<path d="M93.6312 113.146H17.455C7.81487 113.146 0 120.957 0 130.592C0 140.226 7.81487 148.037 17.455 148.037H93.6312C103.271 148.037 111.086 140.226 111.086 130.592C111.086 120.957 103.271 113.146 93.6312 113.146Z" fill="url(#paint0_linear_6390_269)"/>
<path d="M48.7302 56.5638H17.455C7.81487 56.5638 0 64.3744 0 74.0092C0 83.6439 7.81487 91.4544 17.455 91.4544H48.7302C58.3703 91.4544 66.1852 83.6439 66.1852 74.0092C66.1852 64.3744 58.3703 56.5638 48.7302 56.5638Z" fill="url(#paint1_linear_6390_269)"/>
<path d="M202.835 29.611C202.835 29.2268 203.147 28.9154 203.531 28.9154H213.965C214.349 28.9154 214.661 29.2268 214.661 29.611V39.3494C214.661 39.7336 214.349 40.045 213.965 40.045H203.531C203.147 40.045 202.835 39.7336 202.835 39.3494V29.611Z" fill="url(#paint2_linear_6390_269)"/>
<path d="M222.99 0H146.814C137.174 0 129.359 7.81054 129.359 17.4453C129.359 27.0801 137.174 34.8906 146.814 34.8906H200.749V28.5675C200.749 27.6071 201.527 26.8285 202.488 26.8285H215.008C215.969 26.8285 216.747 27.6071 216.747 28.5675V34.8906H222.99C232.631 34.8906 240.446 27.0801 240.446 17.4453C240.446 7.81054 232.631 0 222.99 0Z" fill="url(#paint3_linear_6390_269)"/>
<path d="M37.6776 29.6589C37.6776 29.2747 37.3661 28.9633 36.982 28.9633H26.5479C26.1638 28.9633 25.8523 29.2747 25.8523 29.6589V39.3973C25.8523 39.7815 26.1638 40.0929 26.5479 40.0929H36.982C37.3661 40.0929 37.6776 39.7815 37.6776 39.3973V29.6589Z" fill="url(#paint4_linear_6390_269)"/>
<path d="M17.5224 0.0478906H93.6986C103.339 0.0478906 111.154 7.85843 111.154 17.4932C111.154 27.128 103.339 34.9385 93.6986 34.9385H39.7643V28.6154C39.7643 27.655 38.9858 26.8764 38.0253 26.8764H25.5045C24.5441 26.8764 23.7655 27.655 23.7655 28.6154V34.9385H17.5224C7.88231 34.9385 0.0673992 27.128 0.0673992 17.4932C0.0673992 7.85843 7.88231 0.0478906 17.5224 0.0478906Z" fill="url(#paint5_linear_6390_269)"/>
<path fill-rule="evenodd" clip-rule="evenodd" d="M133.88 120.376L176.531 60.7151C182.137 52.8728 193.035 51.0576 200.873 56.6607C208.711 62.2639 210.521 73.1636 204.914 81.0059L181.938 113.146H148.097C138.457 113.146 130.642 120.957 130.642 130.592C130.642 132.08 130.829 133.524 131.18 134.904C129.933 130.076 130.753 124.751 133.88 120.376ZM131.18 134.906C132.169 138.732 134.456 142.244 137.921 144.722C145.759 150.325 156.658 148.509 162.264 140.667L181.938 113.146H223.01C232.65 113.146 240.465 120.957 240.465 130.592C240.465 140.226 232.65 148.037 223.01 148.037H148.097C139.947 148.037 133.102 142.454 131.18 134.906Z" fill="url(#paint6_linear_6390_269)"/>
<path d="M148.097 113.146C138.457 113.146 130.642 120.957 130.642 130.592C130.642 132.08 130.829 133.524 131.18 134.904L131.18 134.906C132.169 138.732 134.456 142.244 137.921 144.722C145.759 150.325 156.658 148.509 162.264 140.667L181.938 113.146H148.097Z" fill="url(#paint7_linear_6390_269)"/>
<path d="M272.785 99.0075H299.525C299.525 103.299 301.34 106.435 304.146 108.581C306.787 110.562 310.584 111.552 314.545 111.552C319.992 111.552 327.75 109.241 327.75 102.474C327.75 95.8713 319.002 94.5509 314.05 93.3954C296.389 88.9389 274.271 88.4437 274.271 65.3354C274.271 44.703 296.554 39.091 313.39 39.091C332.206 39.091 351.848 44.538 352.839 66.8209H326.925C326.925 63.1896 325.604 60.8788 323.293 59.3933C320.982 57.9077 317.846 57.2475 314.38 57.2475C309.758 57.2475 302.331 57.7427 302.331 63.6848C302.331 71.7727 321.147 73.2582 334.022 76.0642C351.353 79.5305 355.81 92.075 355.81 99.1725C355.81 122.116 334.022 129.708 314.71 129.708C294.408 129.708 273.61 122.941 272.785 99.0075Z" fill="#1D0142"/>
<path d="M452.479 72.9281H425.244C425.079 65.6655 418.642 60.5487 411.544 60.5487C395.864 60.5487 393.388 73.9185 393.388 85.8027C393.388 96.8617 398.175 108.251 410.059 108.251C419.797 108.251 424.749 102.639 426.07 93.5605H453.304C450.828 116.504 433.002 129.708 410.224 129.708C384.475 129.708 365.328 112.047 365.328 85.8027C365.328 58.568 382.659 39.091 410.224 39.091C431.517 39.091 450.498 50.315 452.479 72.9281Z" fill="#1D0142"/>
<path d="M467.297 127.233V9.38037H495.357V53.2861H495.687C499.979 44.538 511.533 39.091 521.766 39.091C550.322 39.091 552.633 59.8885 552.633 72.2679V127.233H524.572V85.8027C524.572 74.0835 525.893 62.1993 510.542 62.1993C499.979 62.1993 495.357 71.1125 495.357 80.5208V127.233H467.297Z" fill="#1D0142"/>
<path d="M595.198 75.5691H630.026C629.531 65.9956 622.763 58.0728 613.355 58.0728C603.451 58.0728 596.849 65.1703 595.198 75.5691ZM658.086 91.2497H595.198C595.694 102.969 602.461 110.727 614.345 110.727C621.113 110.727 627.715 107.591 630.356 101.318H656.6C651.484 121.125 633.162 129.708 614.015 129.708C586.12 129.708 567.138 112.872 567.138 84.1521C567.138 57.9077 588.101 39.091 613.355 39.091C644.056 39.091 659.406 62.1993 658.086 91.2497Z" fill="#1D0142"/>
<path d="M713.27 60.5487C700.395 60.5487 696.104 72.598 696.104 83.4919C696.104 95.2111 700.395 108.251 713.27 108.251C726.97 108.251 729.941 95.2111 729.941 84.3172C729.941 71.9378 725.484 60.5487 713.27 60.5487ZM757.01 9.38037V127.233H730.271V117.329H729.941C724.494 125.417 716.241 129.708 706.337 129.708C679.433 129.708 668.044 106.6 668.044 82.5015C668.044 60.2186 679.928 39.091 704.192 39.091C714.755 39.091 722.843 43.0524 728.62 50.8102H728.95V9.38037H757.01Z" fill="#1D0142"/>
<path d="M861.309 41.5669V127.233H834.074V115.513H833.744C828.462 124.262 817.568 129.708 807.664 129.708C783.07 129.708 775.973 115.513 775.973 93.0653V41.5669H804.033V91.2497C804.033 102.639 808.985 106.6 817.898 106.6C824.005 106.6 833.248 102.639 833.248 87.4533V41.5669H861.309Z" fill="#1D0142"/>
<path d="M881.096 127.233V9.38037H909.156V127.233H881.096Z" fill="#1D0142"/>
<path d="M952.88 75.5691H987.708C987.212 65.9956 980.445 58.0728 971.037 58.0728C961.133 58.0728 954.531 65.1703 952.88 75.5691ZM1015.77 91.2497H952.88C953.375 102.969 960.143 110.727 972.027 110.727C978.794 110.727 985.397 107.591 988.038 101.318H1014.28C1009.17 121.125 990.844 129.708 971.697 129.708C943.802 129.708 924.82 112.872 924.82 84.1521C924.82 57.9077 945.783 39.091 971.037 39.091C1001.74 39.091 1017.09 62.1993 1015.77 91.2497Z" fill="#1D0142"/>
<path d="M1030.84 127.233V41.5669H1058.08V56.5873H1058.41C1062.53 45.6934 1072.11 39.9163 1084.16 39.9163C1086.3 39.9163 1088.61 40.0814 1090.76 40.5765V66.1607C1087.13 65.1703 1083.83 64.5101 1080.03 64.5101C1066.16 64.5101 1058.9 74.0835 1058.9 84.8124V127.233H1030.84Z" fill="#1D0142"/>
<path d="M1086.3 127.233V96.5316H1117V127.233H1086.3Z" fill="#1D0142"/>
<defs>
<linearGradient id="paint0_linear_6390_269" x1="53.3978" y1="-8.99511" x2="-23.7114" y2="133.495" gradientUnits="userSpaceOnUse">
<stop stop-color="#7B68EE"/>
<stop offset="1" stop-color="#4B3E9D"/>
</linearGradient>
<linearGradient id="paint1_linear_6390_269" x1="53.3978" y1="-8.99511" x2="-23.7114" y2="133.495" gradientUnits="userSpaceOnUse">
<stop stop-color="#7B68EE"/>
<stop offset="1" stop-color="#4B3E9D"/>
</linearGradient>
<linearGradient id="paint2_linear_6390_269" x1="53.3978" y1="-8.99511" x2="-23.7114" y2="133.495" gradientUnits="userSpaceOnUse">
<stop stop-color="#7B68EE"/>
<stop offset="1" stop-color="#4B3E9D"/>
</linearGradient>
<linearGradient id="paint3_linear_6390_269" x1="53.3978" y1="-8.99511" x2="-23.7114" y2="133.495" gradientUnits="userSpaceOnUse">
<stop stop-color="#7B68EE"/>
<stop offset="1" stop-color="#4B3E9D"/>
</linearGradient>
<linearGradient id="paint4_linear_6390_269" x1="53.3978" y1="-8.99511" x2="-23.7114" y2="133.495" gradientUnits="userSpaceOnUse">
<stop stop-color="#7B68EE"/>
<stop offset="1" stop-color="#4B3E9D"/>
</linearGradient>
<linearGradient id="paint5_linear_6390_269" x1="53.3978" y1="-8.99511" x2="-23.7114" y2="133.495" gradientUnits="userSpaceOnUse">
<stop stop-color="#7B68EE"/>
<stop offset="1" stop-color="#4B3E9D"/>
</linearGradient>
<linearGradient id="paint6_linear_6390_269" x1="53.3978" y1="-8.99511" x2="-23.7114" y2="133.495" gradientUnits="userSpaceOnUse">
<stop stop-color="#7B68EE"/>
<stop offset="1" stop-color="#4B3E9D"/>
</linearGradient>
<linearGradient id="paint7_linear_6390_269" x1="53.3978" y1="-8.99511" x2="-23.7114" y2="133.495" gradientUnits="userSpaceOnUse">
<stop stop-color="#7B68EE"/>
<stop offset="1" stop-color="#4B3E9D"/>
</linearGradient>
</defs>
</svg>
