<svg width="241" height="149" viewBox="0 0 241 149" fill="none" xmlns="http://www.w3.org/2000/svg">
<path d="M93.6312 113.146H17.455C7.81487 113.146 0 120.957 0 130.592C0 140.226 7.81487 148.037 17.455 148.037H93.6312C103.271 148.037 111.086 140.226 111.086 130.592C111.086 120.957 103.271 113.146 93.6312 113.146Z" fill="url(#paint0_linear_6390_270)"/>
<path d="M48.7302 56.5638H17.455C7.81487 56.5638 0 64.3744 0 74.0092C0 83.6439 7.81487 91.4544 17.455 91.4544H48.7302C58.3703 91.4544 66.1852 83.6439 66.1852 74.0092C66.1852 64.3744 58.3703 56.5638 48.7302 56.5638Z" fill="url(#paint1_linear_6390_270)"/>
<path d="M202.835 29.611C202.835 29.2268 203.147 28.9154 203.531 28.9154H213.965C214.349 28.9154 214.661 29.2268 214.661 29.611V39.3494C214.661 39.7336 214.349 40.045 213.965 40.045H203.531C203.147 40.045 202.835 39.7336 202.835 39.3494V29.611Z" fill="url(#paint2_linear_6390_270)"/>
<path d="M222.99 0H146.814C137.174 0 129.359 7.81054 129.359 17.4453C129.359 27.0801 137.174 34.8906 146.814 34.8906H200.749V28.5675C200.749 27.6071 201.527 26.8285 202.488 26.8285H215.008C215.969 26.8285 216.747 27.6071 216.747 28.5675V34.8906H222.99C232.631 34.8906 240.446 27.0801 240.446 17.4453C240.446 7.81054 232.631 0 222.99 0Z" fill="url(#paint3_linear_6390_270)"/>
<path d="M37.6776 29.6589C37.6776 29.2747 37.3661 28.9633 36.982 28.9633H26.5479C26.1638 28.9633 25.8523 29.2747 25.8523 29.6589V39.3973C25.8523 39.7815 26.1638 40.0929 26.5479 40.0929H36.982C37.3661 40.0929 37.6776 39.7815 37.6776 39.3973V29.6589Z" fill="url(#paint4_linear_6390_270)"/>
<path d="M17.5224 0.0478906H93.6986C103.339 0.0478906 111.154 7.85843 111.154 17.4932C111.154 27.128 103.339 34.9385 93.6986 34.9385H39.7643V28.6154C39.7643 27.655 38.9858 26.8764 38.0253 26.8764H25.5045C24.5441 26.8764 23.7655 27.655 23.7655 28.6154V34.9385H17.5224C7.88231 34.9385 0.0673992 27.128 0.0673992 17.4932C0.0673992 7.85843 7.88231 0.0478906 17.5224 0.0478906Z" fill="url(#paint5_linear_6390_270)"/>
<path fill-rule="evenodd" clip-rule="evenodd" d="M133.88 120.376L176.531 60.7151C182.137 52.8728 193.035 51.0576 200.873 56.6607C208.711 62.2639 210.521 73.1636 204.914 81.0059L181.938 113.146H148.097C138.457 113.146 130.642 120.957 130.642 130.592C130.642 132.08 130.829 133.524 131.18 134.904C129.933 130.076 130.753 124.751 133.88 120.376ZM131.18 134.906C132.169 138.732 134.456 142.244 137.921 144.722C145.759 150.325 156.658 148.509 162.264 140.667L181.938 113.146H223.01C232.65 113.146 240.465 120.957 240.465 130.592C240.465 140.226 232.65 148.037 223.01 148.037H148.097C139.947 148.037 133.102 142.454 131.18 134.906Z" fill="url(#paint6_linear_6390_270)"/>
<path d="M148.097 113.146C138.457 113.146 130.642 120.957 130.642 130.592C130.642 132.08 130.829 133.524 131.18 134.904L131.18 134.906C132.169 138.732 134.456 142.244 137.921 144.722C145.759 150.325 156.658 148.509 162.264 140.667L181.938 113.146H148.097Z" fill="url(#paint7_linear_6390_270)"/>
<defs>
<linearGradient id="paint0_linear_6390_270" x1="53.3978" y1="-8.99511" x2="-23.7114" y2="133.495" gradientUnits="userSpaceOnUse">
<stop stop-color="#7B68EE"/>
<stop offset="1" stop-color="#4B3E9D"/>
</linearGradient>
<linearGradient id="paint1_linear_6390_270" x1="53.3978" y1="-8.99511" x2="-23.7114" y2="133.495" gradientUnits="userSpaceOnUse">
<stop stop-color="#7B68EE"/>
<stop offset="1" stop-color="#4B3E9D"/>
</linearGradient>
<linearGradient id="paint2_linear_6390_270" x1="53.3978" y1="-8.99511" x2="-23.7114" y2="133.495" gradientUnits="userSpaceOnUse">
<stop stop-color="#7B68EE"/>
<stop offset="1" stop-color="#4B3E9D"/>
</linearGradient>
<linearGradient id="paint3_linear_6390_270" x1="53.3978" y1="-8.99511" x2="-23.7114" y2="133.495" gradientUnits="userSpaceOnUse">
<stop stop-color="#7B68EE"/>
<stop offset="1" stop-color="#4B3E9D"/>
</linearGradient>
<linearGradient id="paint4_linear_6390_270" x1="53.3978" y1="-8.99511" x2="-23.7114" y2="133.495" gradientUnits="userSpaceOnUse">
<stop stop-color="#7B68EE"/>
<stop offset="1" stop-color="#4B3E9D"/>
</linearGradient>
<linearGradient id="paint5_linear_6390_270" x1="53.3978" y1="-8.99511" x2="-23.7114" y2="133.495" gradientUnits="userSpaceOnUse">
<stop stop-color="#7B68EE"/>
<stop offset="1" stop-color="#4B3E9D"/>
</linearGradient>
<linearGradient id="paint6_linear_6390_270" x1="53.3978" y1="-8.99511" x2="-23.7114" y2="133.495" gradientUnits="userSpaceOnUse">
<stop stop-color="#7B68EE"/>
<stop offset="1" stop-color="#4B3E9D"/>
</linearGradient>
<linearGradient id="paint7_linear_6390_270" x1="53.3978" y1="-8.99511" x2="-23.7114" y2="133.495" gradientUnits="userSpaceOnUse">
<stop stop-color="#7B68EE"/>
<stop offset="1" stop-color="#4B3E9D"/>
</linearGradient>
</defs>
</svg>
