<svg width="32" height="32" viewBox="0 0 32 32" fill="none" xmlns="http://www.w3.org/2000/svg">
<path d="M11.5554 9.77857C11.5551 10.25 11.3676 10.7021 11.0341 11.0353C10.7005 11.3685 10.2483 11.5556 9.77679 11.5554C9.30532 11.5551 8.85325 11.3676 8.52004 11.0341C8.18683 10.7005 7.99976 10.2483 8 9.77679C8.00024 9.30532 8.18775 8.85325 8.5213 8.52004C8.85484 8.18683 9.3071 7.99976 9.77857 8C10.25 8.00024 10.7021 8.18775 11.0353 8.5213C11.3685 8.85484 11.5556 9.3071 11.5554 9.77857ZM11.6087 12.8717H8.05333V24H11.6087V12.8717ZM17.2262 12.8717H13.6886V24H17.1906V18.1603C17.1906 14.9072 21.4304 14.605 21.4304 18.1603V24H24.9413V16.9515C24.9413 11.4674 18.6661 11.6718 17.1906 14.365L17.2262 12.8717Z" fill="#7B68EE"/>
</svg>
