<svg width="88" height="88" viewBox="0 0 88 88" fill="none" xmlns="http://www.w3.org/2000/svg">
<g filter="url(#filter0_dd_6690_2553)">
<circle cx="44" cy="24" r="24" fill="white"/>
<circle cx="44" cy="24" r="23.5" stroke="#BDB3F6"/>
</g>
<path opacity="0.35" d="M32 14.5299C32 13.1327 33.1327 12 34.5299 12H53.4701C54.8673 12 56 13.1327 56 14.5299V33.4701C56 34.8673 54.8673 36 53.4701 36H34.5299C33.1327 36 32 34.8673 32 33.4701V14.5299Z" fill="#7B68EE"/>
<path d="M33.9727 18.4293C33.9727 18.0358 34.3337 17.7168 34.779 17.7168H45.6761C46.1215 17.7168 46.4825 18.0358 46.4825 18.4293V30.9708C46.4825 31.3643 46.1215 31.6834 45.6761 31.6834H34.779C34.3337 31.6834 33.9727 31.3643 33.9727 30.9708V18.4293Z" fill="#544999"/>
<path d="M34.332 19.6512C34.332 19.1886 34.6882 18.8135 35.1275 18.8135H42.998C43.4373 18.8135 43.7935 19.1886 43.7935 19.6512V29.4773C43.7935 29.9399 43.4373 30.315 42.998 30.315H35.1275C34.6882 30.315 34.332 29.9399 34.332 29.4773V19.6512Z" fill="#7B68EE"/>
<path fill-rule="evenodd" clip-rule="evenodd" d="M34.8103 19.2979L43.2251 19.2979V19.3022H43.3088V30.3152H43.1414V28.7042H37.699V30.3152H37.5315V28.7042H34.894V30.3152H34.7266V19.3022H34.8103V19.2979ZM34.894 19.4716V22.5028L37.5315 22.5028V19.4716L34.894 19.4716ZM37.699 19.4716V22.5028L43.1414 22.5028V19.4716L37.699 19.4716ZM43.1414 22.6765L37.699 22.6765V25.5166L43.1414 25.5166V22.6765ZM43.1414 25.6904L37.699 25.6904V28.5305H43.1414V25.6904ZM37.5315 28.5305V25.6904H34.894V28.5305H37.5315ZM34.894 25.5166H37.5315V22.6765L34.894 22.6765V25.5166Z" fill="white"/>
<g opacity="0.6">
<path d="M45.7422 21.8714C45.7422 21.2796 46.222 20.7998 46.8138 20.7998H53.7027C54.2945 20.7998 54.7743 21.2796 54.7743 21.8714V28.4542C54.7743 29.046 54.2945 29.5258 53.7027 29.5258H46.8138C46.222 29.5258 45.7422 29.046 45.7422 28.4542V21.8714Z" fill="#544999"/>
<path d="M53.3699 23.4815L51.178 25.6733C50.9336 25.9171 50.6025 26.054 50.2573 26.054C49.9122 26.054 49.581 25.9171 49.3366 25.6733L47.1448 23.4815C47.1411 23.5226 47.1328 23.5598 47.1328 23.6007V26.7253C47.1332 27.0704 47.2705 27.4013 47.5146 27.6454C47.7586 27.8894 48.0895 28.0267 48.4347 28.0271H52.08C52.4251 28.0267 52.756 27.8894 53.0001 27.6454C53.2442 27.4013 53.3815 27.0704 53.3819 26.7253V23.6007C53.3819 23.5598 53.3735 23.5226 53.3699 23.4815Z" fill="white"/>
<path d="M50.8099 25.3051L53.1882 22.9266C53.0729 22.7356 52.9105 22.5774 52.7163 22.4675C52.5222 22.3575 52.3031 22.2994 52.08 22.2988H48.4347C48.2116 22.2994 47.9925 22.3575 47.7983 22.4675C47.6042 22.5774 47.4417 22.7356 47.3265 22.9266L49.7048 25.3051C49.8516 25.4513 50.0502 25.5334 50.2573 25.5334C50.4645 25.5334 50.6631 25.4513 50.8099 25.3051Z" fill="white"/>
</g>
<defs>
<filter id="filter0_dd_6690_2553" x="0" y="0" width="88" height="88" filterUnits="userSpaceOnUse" color-interpolation-filters="sRGB">
<feFlood flood-opacity="0" result="BackgroundImageFix"/>
<feColorMatrix in="SourceAlpha" type="matrix" values="0 0 0 0 0 0 0 0 0 0 0 0 0 0 0 0 0 0 127 0" result="hardAlpha"/>
<feMorphology radius="4" operator="erode" in="SourceAlpha" result="effect1_dropShadow_6690_2553"/>
<feOffset dy="20"/>
<feGaussianBlur stdDeviation="12"/>
<feColorMatrix type="matrix" values="0 0 0 0 0.0627451 0 0 0 0 0.0941176 0 0 0 0 0.156863 0 0 0 0.08 0"/>
<feBlend mode="normal" in2="BackgroundImageFix" result="effect1_dropShadow_6690_2553"/>
<feColorMatrix in="SourceAlpha" type="matrix" values="0 0 0 0 0 0 0 0 0 0 0 0 0 0 0 0 0 0 127 0" result="hardAlpha"/>
<feMorphology radius="4" operator="erode" in="SourceAlpha" result="effect2_dropShadow_6690_2553"/>
<feOffset dy="8"/>
<feGaussianBlur stdDeviation="4"/>
<feComposite in2="hardAlpha" operator="out"/>
<feColorMatrix type="matrix" values="0 0 0 0 0.0627451 0 0 0 0 0.0941176 0 0 0 0 0.156863 0 0 0 0.03 0"/>
<feBlend mode="normal" in2="effect1_dropShadow_6690_2553" result="effect2_dropShadow_6690_2553"/>
<feBlend mode="normal" in="SourceGraphic" in2="effect2_dropShadow_6690_2553" result="shape"/>
</filter>
</defs>
</svg>
