<svg width="88" height="88" viewBox="0 0 88 88" fill="none" xmlns="http://www.w3.org/2000/svg">
<g filter="url(#filter0_dd_6690_2554)">
<circle cx="44" cy="24" r="24" fill="white"/>
<circle cx="44" cy="24" r="23.5" stroke="#BDB3F6"/>
</g>
<path opacity="0.35" d="M32.0078 14.5924C32.0078 13.1952 33.1405 12.0625 34.5377 12.0625H53.4779C54.8751 12.0625 56.0078 13.1952 56.0078 14.5924V33.5326C56.0078 34.9298 54.8751 36.0625 53.4779 36.0625H34.5377C33.1405 36.0625 32.0078 34.9298 32.0078 33.5326V14.5924Z" fill="#7B68EE"/>
<path d="M36.5703 15.6248C36.5703 15.0953 36.9996 14.666 37.5291 14.666H50.4858C51.0153 14.666 51.4446 15.0953 51.4446 15.6248V32.4997C51.4446 33.0292 51.0153 33.4585 50.4858 33.4585H37.5291C36.9996 33.4585 36.5703 33.0292 36.5703 32.4997V15.6248Z" fill="#544999"/>
<path fill-rule="evenodd" clip-rule="evenodd" d="M39.2422 18.7428C39.2422 18.4129 39.4235 18.1455 39.6472 18.1455H48.3647C48.5883 18.1455 48.7697 18.4129 48.7697 18.7428C48.7697 19.0726 48.5883 19.34 48.3647 19.34H39.6472C39.4235 19.34 39.2422 19.0726 39.2422 18.7428Z" fill="white"/>
<path fill-rule="evenodd" clip-rule="evenodd" d="M39.2422 24.0621C39.2422 23.7323 39.4552 23.4648 39.7179 23.4648H48.294C48.5567 23.4648 48.7697 23.7323 48.7697 24.0621C48.7697 24.392 48.5567 24.6594 48.294 24.6594H39.7179C39.4552 24.6594 39.2422 24.392 39.2422 24.0621Z" fill="white"/>
<path fill-rule="evenodd" clip-rule="evenodd" d="M39.1836 29.3824C39.1836 29.0526 39.5431 28.7852 39.9866 28.7852H48.0317C48.4752 28.7852 48.8348 29.0526 48.8348 29.3824C48.8348 29.7123 48.4752 29.9797 48.0317 29.9797H39.9866C39.5431 29.9797 39.1836 29.7123 39.1836 29.3824Z" fill="white"/>
<circle cx="51.4233" cy="26.5327" r="3.22801" fill="#7B68EE"/>
<path fill-rule="evenodd" clip-rule="evenodd" d="M51.7757 24.9551C51.7062 24.5657 51.1477 24.5657 51.0782 24.9551L51.0432 25.1511C51.0008 25.3889 50.7381 25.5155 50.5257 25.4004L50.3507 25.3055C50.0029 25.117 49.6547 25.5537 49.9158 25.8508L50.0473 26.0003C50.2067 26.1818 50.1418 26.4661 49.9195 26.5603L49.7361 26.638C49.372 26.7924 49.4963 27.3369 49.8913 27.318L50.0902 27.3085C50.3315 27.2969 50.5133 27.5249 50.4483 27.7576L50.3948 27.9494C50.2884 28.3303 50.7917 28.5726 51.0232 28.252L51.1397 28.0905C51.2811 27.8947 51.5728 27.8947 51.7141 28.0905L51.8307 28.252C52.0622 28.5726 52.5654 28.3303 52.4591 27.9494L52.4055 27.7576C52.3406 27.5249 52.5224 27.2969 52.7637 27.3085L52.9626 27.318C53.3576 27.3369 53.4819 26.7924 53.1178 26.638L52.9344 26.5603C52.712 26.4661 52.6471 26.1818 52.8066 26.0003L52.9381 25.8508C53.1992 25.5537 52.8509 25.117 52.5032 25.3055L52.3282 25.4004C52.1158 25.5155 51.8531 25.3889 51.8106 25.1511L51.7757 24.9551ZM51.427 27.0235C51.6985 27.0235 51.9186 26.8034 51.9186 26.532C51.9186 26.2605 51.6985 26.0404 51.427 26.0404C51.1556 26.0404 50.9355 26.2605 50.9355 26.532C50.9355 26.8034 51.1556 27.0235 51.427 27.0235Z" fill="white"/>
<circle cx="51.4468" cy="20.8345" r="3.22801" fill="#7B68EE"/>
<path d="M53.2221 20.8348C53.2221 21.0409 53.0549 21.2081 52.8488 21.2081L49.8873 21.2081L49.8872 20.4614L52.8488 20.4614C53.0549 20.4614 53.2221 20.6286 53.2221 20.8348Z" fill="white"/>
<path d="M51.4453 19.058C51.6515 19.058 51.8186 19.2251 51.8186 19.4313L51.8186 22.3928L51.072 22.3928L51.072 19.4313C51.072 19.2251 51.2392 19.058 51.4453 19.058Z" fill="white"/>
<defs>
<filter id="filter0_dd_6690_2554" x="0" y="0" width="88" height="88" filterUnits="userSpaceOnUse" color-interpolation-filters="sRGB">
<feFlood flood-opacity="0" result="BackgroundImageFix"/>
<feColorMatrix in="SourceAlpha" type="matrix" values="0 0 0 0 0 0 0 0 0 0 0 0 0 0 0 0 0 0 127 0" result="hardAlpha"/>
<feMorphology radius="4" operator="erode" in="SourceAlpha" result="effect1_dropShadow_6690_2554"/>
<feOffset dy="20"/>
<feGaussianBlur stdDeviation="12"/>
<feColorMatrix type="matrix" values="0 0 0 0 0.0627451 0 0 0 0 0.0941176 0 0 0 0 0.156863 0 0 0 0.08 0"/>
<feBlend mode="normal" in2="BackgroundImageFix" result="effect1_dropShadow_6690_2554"/>
<feColorMatrix in="SourceAlpha" type="matrix" values="0 0 0 0 0 0 0 0 0 0 0 0 0 0 0 0 0 0 127 0" result="hardAlpha"/>
<feMorphology radius="4" operator="erode" in="SourceAlpha" result="effect2_dropShadow_6690_2554"/>
<feOffset dy="8"/>
<feGaussianBlur stdDeviation="4"/>
<feComposite in2="hardAlpha" operator="out"/>
<feColorMatrix type="matrix" values="0 0 0 0 0.0627451 0 0 0 0 0.0941176 0 0 0 0 0.156863 0 0 0 0.03 0"/>
<feBlend mode="normal" in2="effect1_dropShadow_6690_2554" result="effect2_dropShadow_6690_2554"/>
<feBlend mode="normal" in="SourceGraphic" in2="effect2_dropShadow_6690_2554" result="shape"/>
</filter>
</defs>
</svg>
