<svg width="32" height="32" viewBox="0 0 32 32" fill="none" xmlns="http://www.w3.org/2000/svg">
<path d="M22.3023 26.3919L6.81547 6.48076C6.73385 6.37564 6.68336 6.24973 6.66975 6.11734C6.65613 5.98495 6.67994 5.8514 6.73847 5.73188C6.797 5.61235 6.8879 5.51165 7.00082 5.44122C7.11374 5.3708 7.24417 5.33347 7.37725 5.3335H10.3165C10.4247 5.33366 10.5315 5.35851 10.6286 5.40616C10.7257 5.45381 10.8107 5.523 10.8771 5.60846L26.3639 25.5196C26.4455 25.6247 26.496 25.7506 26.5096 25.883C26.5233 26.0154 26.4994 26.1489 26.4409 26.2684C26.3824 26.388 26.2915 26.4887 26.1786 26.5591C26.0656 26.6295 25.9352 26.6669 25.8021 26.6668H22.8629C22.7547 26.6667 22.6479 26.6418 22.5508 26.5942C22.4536 26.5465 22.3687 26.4773 22.3023 26.3919Z" stroke="#7B68EE" stroke-width="1.5"/>
<path d="M26.0704 5.3335L7.10742 26.6668" stroke="#7B68EE" stroke-width="1.5" stroke-linecap="round"/>
</svg>
