<svg width="32" height="32" viewBox="0 0 32 32" fill="none" xmlns="http://www.w3.org/2000/svg">
<path d="M22.3042 26.3914L6.81743 6.48027C6.7358 6.37515 6.68531 6.24924 6.6717 6.11685C6.65809 5.98447 6.6819 5.85091 6.74043 5.73139C6.79895 5.61186 6.88985 5.51116 7.00277 5.44074C7.1157 5.37031 7.24612 5.33298 7.37921 5.33301H10.3185C10.4267 5.33317 10.5334 5.35802 10.6306 5.40567C10.7277 5.45332 10.8127 5.52251 10.8791 5.60797L26.3659 25.5191C26.4475 25.6242 26.498 25.7501 26.5116 25.8825C26.5252 26.0149 26.5014 26.1484 26.4429 26.268C26.3843 26.3875 26.2935 26.4882 26.1805 26.5586C26.0676 26.629 25.9372 26.6664 25.8041 26.6663H22.8648C22.7566 26.6662 22.6499 26.6413 22.5527 26.5937C22.4556 26.546 22.3706 26.4768 22.3042 26.3914Z" stroke="white" stroke-width="1.5"/>
<path d="M26.0723 5.33301L7.10938 26.6663" stroke="white" stroke-width="1.5" stroke-linecap="round"/>
</svg>
