<svg width="32" height="32" viewBox="0 0 32 32" fill="none" xmlns="http://www.w3.org/2000/svg">
<path fill-rule="evenodd" clip-rule="evenodd" d="M9.3178 6.52023C13.7652 6.17229 18.233 6.17229 22.6805 6.52023L25.6671 6.7549C26.4761 6.81796 27.2406 7.14997 27.8389 7.69801C28.4372 8.24606 28.8349 8.9786 28.9685 9.7789C29.6578 13.8989 29.6578 18.1029 28.9685 22.2216C28.8349 23.0217 28.4375 23.754 27.8394 24.3021C27.2414 24.8501 26.4772 25.1822 25.6685 25.2456L22.6818 25.4789C18.2339 25.8269 13.7657 25.8269 9.3178 25.4789L6.33114 25.2456C5.52222 25.1825 4.75768 24.8505 4.15938 24.3024C3.56107 23.7544 3.16342 23.0219 3.0298 22.2216C2.34163 18.1026 2.34163 13.8979 3.0298 9.7789C3.16336 8.97881 3.56082 8.24642 4.15886 7.6984C4.7569 7.15038 5.52112 6.81824 6.3298 6.7549L9.3178 6.52023ZM13.3325 19.2936V12.7069C13.3326 12.6362 13.3514 12.5668 13.3871 12.5058C13.4227 12.4447 13.4739 12.3942 13.5354 12.3594C13.5969 12.3246 13.6666 12.3067 13.7373 12.3075C13.8079 12.3084 13.8771 12.3279 13.9378 12.3642L19.4271 15.6576C19.4862 15.6931 19.5351 15.7434 19.569 15.8034C19.603 15.8635 19.6208 15.9313 19.6208 16.0002C19.6208 16.0692 19.603 16.137 19.569 16.197C19.5351 16.2571 19.4862 16.3073 19.4271 16.3429L13.9378 19.6362C13.8771 19.6725 13.8079 19.6921 13.7373 19.6929C13.6666 19.6938 13.5969 19.6759 13.5354 19.641C13.4739 19.6062 13.4227 19.5557 13.3871 19.4947C13.3514 19.4336 13.3326 19.3642 13.3325 19.2936Z" fill="#7B68EE"/>
</svg>
