<svg width="32" height="32" viewBox="0 0 32 32" fill="none" xmlns="http://www.w3.org/2000/svg">
<path fill-rule="evenodd" clip-rule="evenodd" d="M9.31976 6.51974C13.7672 6.17181 18.235 6.17181 22.6824 6.51974L25.6691 6.75441C26.478 6.81747 27.2425 7.14948 27.8408 7.69753C28.4392 8.24557 28.8368 8.97811 28.9704 9.77841C29.6598 13.8984 29.6598 18.1024 28.9704 22.2211C28.8369 23.0212 28.4394 23.7535 27.8414 24.3016C27.2433 24.8496 26.4791 25.1817 25.6704 25.2451L22.6838 25.4784C18.2359 25.8265 13.7676 25.8265 9.31976 25.4784L6.33309 25.2451C5.52417 25.182 4.75964 24.85 4.16133 24.302C3.56302 23.7539 3.16537 23.0214 3.03176 22.2211C2.34358 18.1021 2.34358 13.8974 3.03176 9.77841C3.16532 8.97832 3.56277 8.24593 4.16081 7.69791C4.75885 7.14989 5.52308 6.81775 6.33176 6.75441L9.31976 6.51974ZM13.3344 19.2931V12.7064C13.3345 12.6357 13.3534 12.5663 13.389 12.5053C13.4247 12.4442 13.4759 12.3937 13.5374 12.3589C13.5989 12.3241 13.6685 12.3062 13.7392 12.307C13.8099 12.3079 13.8791 12.3275 13.9398 12.3637L19.4291 15.6571C19.4882 15.6927 19.537 15.7429 19.571 15.8029C19.6049 15.863 19.6227 15.9308 19.6227 15.9997C19.6227 16.0687 19.6049 16.1365 19.571 16.1965C19.537 16.2566 19.4882 16.3068 19.4291 16.3424L13.9398 19.6357C13.8791 19.672 13.8099 19.6916 13.7392 19.6924C13.6685 19.6933 13.5989 19.6754 13.5374 19.6406C13.4759 19.6057 13.4247 19.5552 13.389 19.4942C13.3534 19.4332 13.3345 19.3638 13.3344 19.2931Z" fill="white"/>
</svg>
