<svg width="237" height="153" viewBox="0 0 237 153" fill="none" xmlns="http://www.w3.org/2000/svg">
<path d="M92.132 111.335H17.1755C7.68974 111.335 0 119.02 0 128.501C0 137.981 7.68974 145.667 17.1755 145.667H92.132C101.618 145.667 109.308 137.981 109.308 128.501C109.308 119.02 101.618 111.335 92.132 111.335Z" fill="#7B68EE"/>
<path d="M47.9499 55.6582H17.1755C7.68974 55.6582 0 63.3437 0 72.8242C0 82.3047 7.68974 89.9901 17.1755 89.9901H47.9499C57.4357 89.9901 65.1255 82.3047 65.1255 72.8242C65.1255 63.3437 57.4357 55.6582 47.9499 55.6582Z" fill="#7B68EE"/>
<path d="M219.44 111.335H145.726C136.241 111.335 128.551 119.02 128.551 128.501C128.551 137.981 136.241 145.667 145.726 145.667H219.44C228.925 145.667 236.615 137.981 236.615 128.501C236.615 119.02 228.925 111.335 219.44 111.335Z" fill="#7B68EE"/>
<path d="M173.704 59.7424L131.737 118.448C126.22 126.165 128 136.89 135.713 142.404C143.425 147.917 154.149 146.131 159.666 138.414L201.633 79.7084C207.15 71.9916 205.37 61.2664 197.657 55.753C189.945 50.2395 179.221 52.0257 173.704 59.7424Z" fill="#7B68EE"/>
<rect x="199.586" y="28.4521" width="11.6359" height="10.9514" rx="2" fill="white"/>
<path d="M219.419 0H144.463C134.977 0 127.287 7.68548 127.287 17.166C127.287 26.6465 134.977 34.332 144.463 34.332H197.533V28.1101C197.533 27.165 198.299 26.3989 199.245 26.3989H211.565C212.51 26.3989 213.276 27.165 213.276 28.1101V34.332H219.419C228.905 34.332 236.595 26.6465 236.595 17.166C236.595 7.68548 228.905 0 219.419 0Z" fill="white"/>
<rect width="11.6359" height="10.9514" rx="2" transform="matrix(-1 0 0 1 37.0762 28.498)" fill="#47CDD0"/>
<path d="M17.243 0.0458984H92.1994C101.685 0.0458984 109.375 7.73138 109.375 17.2119C109.375 26.6924 101.685 34.3779 92.1994 34.3779H39.1288V28.156C39.1288 27.2109 38.3626 26.4448 37.4176 26.4448H25.0972C24.1522 26.4448 23.3861 27.2109 23.3861 28.156V34.3779H17.243C7.75721 34.3779 0.0674362 26.6924 0.0674362 17.2119C0.0674362 7.73138 7.75721 0.0458984 17.243 0.0458984Z" fill="#47CDD0"/>
</svg>
